<svg width="12" height="12" viewBox="0 0 12 12" fill="none" xmlns="http://www.w3.org/2000/svg">
<path d="M5.4 5.88V7.8C5.4 7.97 5.4576 8.1126 5.5728 8.2278C5.688 8.343 5.8304 8.4004 6 8.4C6.17 8.4 6.3126 8.3424 6.4278 8.2272C6.543 8.112 6.6004 7.9696 6.6 7.8V5.88L7.14 6.42C7.25 6.53 7.39 6.585 7.56 6.585C7.73 6.585 7.87 6.53 7.98 6.42C8.09 6.31 8.145 6.17 8.145 6C8.145 5.83 8.09 5.69 7.98 5.58L6.42 4.02C6.3 3.9 6.16 3.84 6 3.84C5.84 3.84 5.7 3.9 5.58 4.02L4.02 5.58C3.91 5.69 3.855 5.83 3.855 6C3.855 6.17 3.91 6.31 4.02 6.42C4.13 6.53 4.27 6.585 4.44 6.585C4.61 6.585 4.75 6.53 4.86 6.42L5.4 5.88ZM6 12C5.17 12 4.39 11.8424 3.66 11.5272C2.93 11.212 2.295 10.7846 1.755 10.245C1.215 9.705 0.7876 9.07 0.4728 8.34C0.158 7.61 0.0004 6.83 0 6C0 5.17 0.1576 4.39 0.4728 3.66C0.788 2.93 1.2154 2.295 1.755 1.755C2.295 1.215 2.93 0.7876 3.66 0.4728C4.39 0.158 5.17 0.0004 6 0C6.83 0 7.61 0.1576 8.34 0.4728C9.07 0.788 9.705 1.2154 10.245 1.755C10.785 2.295 11.2126 2.93 11.5278 3.66C11.843 4.39 12.0004 5.17 12 6C12 6.83 11.8424 7.61 11.5272 8.34C11.212 9.07 10.7846 9.705 10.245 10.245C9.705 10.785 9.07 11.2126 8.34 11.5278C7.61 11.843 6.83 12.0004 6 12Z" fill="#FF0000"/>
</svg>
